# xmcd
#
# Track frame offsets: 
#        150
#        14584
#        29820
#        44555
#        56287
#        68946
#        86068
#        102354
#        120007
#        133211
#        142401
#        165361
#
# Disc length: 2512 seconds
#
# Revision: 0
# Processed by: cddbd v1.5.2PL0 Copyright (c) Steve Scherf et al.
# Submitted via: ExactAudioCopy v0.99pb5
#
DISCID=ad09ce0c
DTITLE=The Bowers Family - Everybody Praise The Lord
DYEAR=1900
DGENRE=Gospel
TTITLE0=Gotta Go Back
TTITLE1=The Potter Knows The Clay
TTITLE2=Just Like Always
TTITLE3=I Searched For Him
TTITLE4=Wade On Out
TTITLE5=Going Home
TTITLE6=I'd Rather Have Jesus
TTITLE7=There Rose A Lamb
TTITLE8=Everybody Praise The Lord
TTITLE9=I'm Too Near Home
TTITLE10=That Sounds Like Home To Me
TTITLE11=It Pays To Pray
EXTD=
EXTT0=
EXTT1=
EXTT2=
EXTT3=
EXTT4=
EXTT5=
EXTT6=
EXTT7=
EXTT8=
EXTT9=
EXTT10=
EXTT11=
PLAYORDER=
